<?xml version="1.0" encoding="UTF-8"?>
<svg width="56px" height="54px" version="1.1" viewBox="0 0 56 54" xmlns="http://www.w3.org/2000/svg">
    <title>3D8092F9-B3F1-4F24-A627-001A08E29D56</title>
    <desc>Created with sketchtool.</desc>
    <g fill="none" fill-rule="evenodd">
        <g transform="translate(-801 -623)" fill="#4191FF" fill-rule="nonzero" stroke="#4191FF" stroke-width=".5">
            <g transform="translate(802 624)">
                <path id="Shape" d="m52.796 22.388-5.1097-13.4c-0.30154-0.79366-0.91018-1.4323-1.6884-1.7717-0.78934-0.35125-1.6869-0.36962-2.49-0.050964-0.80071 0.31022-1.4405 0.93322-1.7719 1.7254-0.32962 0.77785-0.32813 1.6564 0.0041205 2.4331l2.3813 5.6083c-0.85493-0.087929-1.7071 0.19042-2.3453 0.76607s-1.0026 1.3947-1.003 2.2541v6.729c-8.614e-4 0.68054-0.1593 1.3516-0.4629 1.9607-1.4035 2.8154-2.1358 5.9175-2.1395 9.0633v2.1988c-0.47909 0-0.86747 0.38838-0.86747 0.86747v11.277h1.7349v-10.41h10.41v10.41h1.7349v-11.277c0-0.47909-0.38838-0.86747-0.86747-0.86747h-0.33072l2.6892-6.4765c1.4415-3.5306 1.4853-7.4775 0.12231-11.039zm-1.7267 10.38-2.9635 7.136h-8.2002v-2.1988c0.0034036-2.8765 0.67302-5.7131 1.9564-8.2874 0.42373-0.85011 0.64486-1.7868 0.64605-2.7367v-6.729c9.663e-4 -0.70753 0.5674-1.2845 1.2748-1.2984 0.70739-0.013955 1.2961 0.54019 1.325 1.2471 9.759e-4 0.034916 0.0026024 10.461 0.0026024 10.461h1.7349v-10.41c0-0.060506-0.0022771-0.12047-0.005747-0.18011-0.026944-0.64506-0.17021-1.2799-0.42289-1.8741l-3.0795-7.2517c-0.14809-0.34616-0.14868-0.73773-0.0016265-1.0843 0.15144-0.35992 0.44298-0.64261 0.8074-0.78289 0.37216-0.14772 0.78815-0.1392 1.154 0.023639 0.35361 0.15325 0.63058 0.44249 0.76836 0.80241l5.1097 13.401c1.2057 3.1495 1.1679 6.6397-0.10572 9.7623z"/>
                <path id="b" d="m15.617 39.904v-2.1988c-0.0037321-3.1458-0.73604-6.248-2.1395-9.0633-0.3036-0.60906-0.46204-1.2802-0.4629-1.9607v-6.729c-3.99e-4 -0.85944-0.36486-1.6785-1.003-2.2541-0.63818-0.57564-1.4904-0.854-2.3453-0.76607l2.3816-5.6091c0.332-0.77654 0.33337-1.6548 0.0037952-2.4324-0.33141-0.79218-0.97121-1.4152-1.7719-1.7254-0.80305-0.31866-1.7006-0.30028-2.49 0.050964-0.77822 0.33934-1.3869 0.97797-1.6884 1.7716l-5.1097 13.401c-1.3635 3.5638-1.319 7.513 0.12437 11.045l2.6871 6.4706h-0.33072c-0.47909 0-0.86747 0.38838-0.86747 0.86747v11.277h1.7349v-10.41h10.41v10.41h1.7349v-11.277c0-0.47909-0.38838-0.86747-0.86747-0.86747zm-12.896-7.1301c-1.2754-3.1239-1.3142-6.6161-0.10843-9.7675l5.1102-13.401c0.13781-0.3599 0.41477-0.64914 0.76836-0.80241 0.36581-0.16279 0.78178-0.17131 1.154-0.023639 0.36441 0.14028 0.65595 0.42297 0.8074 0.78289 0.14686 0.34618 0.14635 0.73724-0.0014097 1.083l-3.0795 7.2525c-0.25268 0.59412-0.39595 1.229-0.42289 1.8741-0.0036868 0.05953-0.0059639 10.59-0.0059639 10.59h1.7349s0.0016265-10.426 0.0026024-10.461c0.028871-0.70694 0.61762-1.2611 1.325-1.2471 0.70739 0.013956 1.2738 0.59089 1.2748 1.2984v6.729c0.0011899 0.94986 0.22232 1.8865 0.64605 2.7367 1.2833 2.5743 1.953 5.4109 1.9564 8.2874v2.1988h-8.2002l-2.9612-7.1301z"/>
                <polygon id="Path" points="19.954 15.614 21.689 15.614 21.689 17.349 19.954 17.349"/>
                <polygon id="Path" points="23.424 15.614 25.159 15.614 25.159 17.349 23.424 17.349"/>
                <polygon id="Path" points="19.954 19.084 21.689 19.084 21.689 20.819 19.954 20.819"/>
                <polygon id="Path" points="31.231 26.024 32.966 26.024 32.966 27.759 31.231 27.759"/>
                <polygon id="Path" points="27.761 26.024 29.496 26.024 29.496 27.759 27.761 27.759"/>
                <polygon id="Path" points="19.954 22.554 21.689 22.554 21.689 24.289 19.954 24.289"/>
                <polygon id="Path" points="19.954 26.024 21.689 26.024 21.689 27.759 19.954 27.759"/>
                <path d="m17.352 31.229h18.217c0.47909 0 0.86747-0.38838 0.86747-0.86747v-6.0723c0.47909 0 0.86747-0.38838 0.86747-0.86747v-5.2048c0-0.25149-0.10911-0.49061-0.29911-0.65539-0.18999-0.16478-0.44215-0.23899-0.69111-0.2034l-12.145 1.7349c-0.42735 0.061084-0.74475 0.4271-0.74472 0.8588v3.4699c0 0.47909 0.38838 0.86747 0.86747 0.86747v5.2048h-6.0723v-15.614h8.6747v2.6024h1.7349v-2.6024c0.47909 0 0.86747-0.38838 0.86747-0.86747v-5.2048c1.55e-5 -0.25149-0.10911-0.49061-0.29911-0.65539-0.18999-0.16478-0.44215-0.23899-0.69111-0.2034l-12.145 1.7349c-0.42735 0.061084-0.74472 0.4271-0.74472 0.8588v3.4699c0 0.47909 0.38838 0.86747 0.86747 0.86747v16.482c0 0.47909 0.38838 0.86747 0.86747 0.86747zm7.8072-10.525 10.41-1.4871v3.3372h-10.41v-1.8501zm0.86747 3.585h8.6747v5.2048h-8.6747v-5.2048zm-8.6747-13.995 10.41-1.4871v3.3372h-10.41v-1.8501z"/>
                <path id="Path" d="m26.894 39.904c-3.3059 0.0011715-6.5555-0.85642-9.4303-2.4888l-0.85858 1.5072c6.3812 3.6214 14.196 3.6214 20.578 0l-0.85858-1.5072c-2.8748 1.6323-6.1243 2.4899-9.4303 2.4888z"/>
                <path id="Path" d="m26.894 1.7348c5.1714-0.017626 10.125 2.081 13.71 5.8083l1.2461-1.2069c-3.9218-4.0499-9.3184-6.3362-14.956-6.3362-5.6376 0-11.034 2.2863-14.956 6.3362l1.2461 1.2069c3.5849-3.7273 8.5385-5.8259 13.71-5.8083z"/>
                <path id="Path" d="m19.588 36.56 0.73128-1.5734c-0.56499-0.26282-1.1138-0.55915-1.6434-0.88742l-0.91431 1.4747c0.58861 0.36482 1.1985 0.69411 1.8265 0.9861z"/>
                <path id="Path" d="m26.894 36.434c-1.7044 0.0019781-3.3976-0.27557-5.0122-0.8216l-0.55648 1.6432c5.2709 1.7796 11.075 0.92877 15.614-2.2887l-1.0056-1.4139c-2.6382 1.881-5.7993 2.8885-9.0394 2.881z"/>
                <path id="Path" d="m24.155 3.6847 0.27195 1.7133c0.81583-0.1288 1.6405-0.19341 2.4664-0.19323 3.97-0.0059595 7.7921 1.5062 10.683 4.2269l1.1873-1.265c-3.2126-3.0231-7.4595-4.7034-11.871-4.6968-0.91701 0-1.8326 0.07182-2.7384 0.21493z"/>
                <polygon id="a" points="40.773 43.373 42.508 43.373 42.508 45.108 40.773 45.108"/>
                <polygon points="11.279 43.373 13.014 43.373 13.014 45.108 11.279 45.108"/>
            </g>
        </g>
    </g>
</svg>
