<?xml version="1.0" encoding="UTF-8"?>
<svg width="56px" height="56px" version="1.1" viewBox="0 0 56 56" xmlns="http://www.w3.org/2000/svg">
    <title>B533392C-18C7-4537-BE24-9970569658B9</title>
    <desc>Created with sketchtool.</desc>
    <g fill="none" fill-rule="evenodd">
        <g transform="translate(-801 -531)" fill="#4191FF" fill-rule="nonzero" stroke="#4191FF" stroke-width=".5">
            <g transform="translate(802 532)">
                <path id="Path" d="m1.1148 4.9381 3.5949 6.292c0.12126 0.21262 0.32422 0.36644 0.56157 0.42597l3.3539 0.83863 11.503 11.505 1.271-1.2709-11.683-11.685c-0.11497-0.11537-0.25916-0.19709-0.41701-0.23665l-3.2226-0.80868-3.0607-5.3601 2.6241-2.6246 5.3613 3.0643 0.80889 3.2233c0.039188 0.15826 0.12126 0.30284 0.23623 0.41784l11.683 11.685 1.2706-1.2713-11.503-11.505-0.83847-3.3527c-0.059521-0.23776-0.21331-0.44113-0.42589-0.56279l-6.2911-3.5952c-0.35084-0.19967-0.79225-0.14051-1.0784 0.14458l-3.5945 3.5956c-0.2891 0.28435-0.35195 0.72659-0.15379 1.0805z"/>
                <polygon id="a" points="38 17.268 18.268 37 17 35.732 36.732 16"/>
                <path id="b" d="m15.082 38.445c-0.16808-0.27604-0.46986-0.4446-0.79609-0.4446h-5.5715c-0.32585 0-0.62801 0.16856-0.7957 0.4446l-2.7859 4.5833c-0.17687 0.29037-0.17687 0.65351 0 0.94426l2.7859 4.5833c0.1677 0.27566 0.46986 0.4446 0.7957 0.4446h5.5715c0.32623 0 0.62801-0.16894 0.79609-0.4446l2.7855-4.5833c0.17687-0.29074 0.17687-0.65389 0-0.94426l-2.7855-4.5833zm-1.3213 8.7219h-4.5206l-2.2286-3.6665 2.2286-3.6669h4.5206l2.2286 3.6669-2.2286 3.6665z"/>
                <path d="m43.182 21.592c5.9416 0.019984 10.775-4.7805 10.795-10.722 0.0029607-0.90444-0.10806-1.8052-0.33048-2.6819-0.11991-0.4822-0.60804-0.77566-1.0903-0.65576-0.15839 0.039597-0.30272 0.12138-0.41819 0.23647l-5.6 5.5961-4.4432-1.4806-1.4818-4.4419 5.6-5.601c0.3512-0.35156 0.35083-0.9211-7.402e-4 -1.2723-0.11583-0.11583-0.26165-0.19799-0.42115-0.23721-5.7621-1.4592-11.616 2.0287-13.075 7.7903-0.22168 0.8741-0.33233 1.7726-0.32937 2.6745 0.0022204 0.70831 0.075126 1.4144 0.21872 2.1079l-19.702 19.701c-0.69353-0.14322-1.3996-0.21612-2.1076-0.21871-5.9623 0-10.796 4.8331-10.796 10.795 0 5.9618 4.8332 10.795 10.796 10.795 5.962 0 10.795-4.8331 10.795-10.795-0.0022206-0.70831-0.075496-1.4144-0.21872-2.1079l4.7167-4.7165 2.0628 2.0628c0.35158 0.35119 0.92076 0.35119 1.2723 0l0.44965-0.45c0.3945-0.3919 1.0322-0.3919 1.4267 0 0.39413 0.39301 0.39487 1.031 0.0018504 1.4251l-0.4515 0.45148c-0.3512 0.35119-0.3512 0.92073 0 1.2719l10.732 10.731c2.8226 2.8484 7.4197 2.8691 10.268 0.046628 2.8481-2.8225 2.8689-7.4198 0.04626-10.268-0.015173-0.015543-0.030716-0.031086-0.04626-0.046628l-10.732-10.731c-0.3512-0.35119-0.92076-0.35119-1.272 0l-0.44965 0.44963c-0.39487 0.39227-1.0322 0.39227-1.427 0-0.39376-0.39301-0.39487-1.031-0.0018504-1.4248 7.402e-4 -7.401e-4 0.0014803-0.0011102 0.0018504-0.0018503l0.45002-0.45c0.3512-0.35119 0.3512-0.92073 0-1.2719l-2.0628-2.0628 4.7167-4.7165c0.69353 0.14322 1.3996 0.21649 2.1076 0.21871zm3.5346 30.586c-0.65356-0.0011137-1.3016-0.11916-1.9133-0.34898l7.0259-7.0261c1.0603 2.8203-0.36638 5.9658-3.1867 7.0261-0.61544 0.23129-1.2679 0.34971-1.9259 0.34898zm-10.192-23.38c-0.99625 1.1883-0.84008 2.9594 0.34824 3.9553 1.0444 0.87521 2.5665 0.87447 3.6097-0.0025905l10.096 10.104c0.10954 0.10991 0.21206 0.22574 0.31124 0.34342l-7.6917 7.6915c-0.11806-0.098808-0.23389-0.20132-0.3438-0.31123l-10.104-10.104c0.99625-1.1883 0.84008-2.9594-0.34824-3.9553-1.0444-0.87558-2.5669-0.87447-3.6101 0.0022204l-1.4392-1.4392 7.7321-7.7203 1.4396 1.4359zm3.6327-9.0478-20.408 20.403c-0.2239 0.22352-0.31383 0.54807-0.23759 0.85485 1.2342 4.8468-1.6946 9.7764-6.5419 11.01-4.8469 1.2342-9.7767-1.6945-11.011-6.5417-1.2338-4.8468 1.695-9.7764 6.5423-11.011 1.4663-0.37303 3.0025-0.37303 4.4687 0 0.3068 0.075124 0.63061-0.014803 0.85488-0.23721l20.403-20.404c0.22353-0.22352 0.31346-0.54807 0.23648-0.85448-1.2257-4.7901 1.6639-9.6669 6.4542-10.893 0.90521-0.23129 1.8415-0.32011 2.7741-0.26201l-4.7455 4.7472c-0.24092 0.24054-0.3253 0.59692-0.21761 0.91999l1.799 5.3978c0.089929 0.2683 0.30087 0.47924 0.56955 0.56842l5.398 1.7993c0.32271 0.10769 0.67909 0.023684 0.92002-0.21686l4.7455-4.7454c0.010732 0.17171 0.016402 0.34157 0.016402 0.51069 0.025047 4.943-3.9614 8.9704-8.9046 8.996-0.76421 0.0037007-1.5258-0.090296-2.266-0.27977-0.3068-0.076604-0.63135 0.012952-0.85488 0.23647h0.004811v3.701e-4z"/>
                <polygon points="47 44.761 45.761 46 37 37.239 38.239 36"/>
            </g>
        </g>
    </g>
</svg>
